<svg width="22" height="22" viewBox="0 0 22 22" fill="none" xmlns="http://www.w3.org/2000/svg">
<path d="M16.4982 21H7.99821C6.70007 20.9996 5.4276 20.5981 4.32298 19.8404C3.21837 19.0826 2.32513 17.9985 1.74308 16.7091C1.16103 15.4196 0.913101 13.9758 1.027 12.5388C1.1409 11.1018 1.61214 9.72834 2.38805 8.57184C3.16397 7.41534 4.214 6.52138 5.42081 5.98987C6.62761 5.45835 7.94365 5.31022 9.22186 5.56202C10.5001 5.81381 11.6901 6.45562 12.6589 7.41573C13.6278 8.37583 14.3373 9.6164 14.7082 10.9988H16.4982C17.0892 10.9988 17.6743 11.1282 18.2203 11.3795C18.7662 11.6308 19.2623 11.9991 19.6802 12.4635C20.0981 12.9278 20.4295 13.4791 20.6557 14.0858C20.8818 14.6925 20.9982 15.3427 20.9982 15.9994C20.9982 16.6561 20.8818 17.3064 20.6557 17.9131C20.4295 18.5198 20.0981 19.071 19.6802 19.5354C19.2623 19.9997 18.7662 20.3681 18.2203 20.6194C17.6743 20.8707 17.0892 21 16.4982 21Z" stroke="white" stroke-width="2" stroke-linecap="round" stroke-linejoin="round"/>
<path d="M20.9982 8.77633C20.9982 7.89217 20.6822 7.04422 20.1196 6.41902C19.5569 5.79383 18.7939 5.4426 17.9982 5.4426H15.7912C15.452 4.11614 14.7192 2.95607 13.7118 2.15079C12.7044 1.34551 11.4816 0.942309 10.2421 1.00667C9.00246 1.07102 7.81884 1.59916 6.88342 2.5053C5.948 3.41145 5.31571 4.64239 5.08923 5.99822" stroke="white" stroke-width="2" stroke-linecap="round" stroke-linejoin="round"/>
</svg>
