<svg width="90" height="99" viewBox="0 0 90 99" fill="none" xmlns="http://www.w3.org/2000/svg">
<g filter="url(#filter0_d_1_16)">
<path opacity="0.2" d="M82.125 29.682C82.125 36.7268 79.3265 43.4831 74.345 48.4645C69.3636 53.446 62.6073 56.2445 55.5625 56.2445H24.3125C21.819 56.2421 19.3558 55.6972 17.094 54.6476C14.8321 53.5979 12.8258 52.0687 11.2141 50.166C9.60242 48.2633 8.42405 46.0328 7.76075 43.6291C7.09745 41.2254 6.9651 38.7061 7.37289 36.2462C7.78068 33.7862 8.71885 31.4445 10.1223 29.3834C11.5257 27.3223 13.3608 25.5913 15.5002 24.3104C17.6396 23.0295 20.0321 22.2295 22.5117 21.9659C24.9912 21.7022 27.4985 21.9812 29.8594 22.7836V22.8265C31.5284 16.5988 35.4038 11.1898 40.764 7.60654C46.1242 4.02332 52.6038 2.51011 58.9966 3.34863C65.3894 4.18714 71.2597 7.32025 75.5144 12.1646C79.7692 17.009 82.1185 23.2345 82.125 29.682Z" fill="white"/>
<path d="M41.5 71.8695H22.75C21.9212 71.8695 21.1263 71.5403 20.5403 70.9542C19.9542 70.3682 19.625 69.5733 19.625 68.7445C19.625 67.9157 19.9542 67.1208 20.5403 66.5348C21.1263 65.9487 21.9212 65.6195 22.75 65.6195H41.5C42.3288 65.6195 43.1237 65.9487 43.7097 66.5348C44.2958 67.1208 44.625 67.9157 44.625 68.7445C44.625 69.5733 44.2958 70.3682 43.7097 70.9542C43.1237 71.5403 42.3288 71.8695 41.5 71.8695ZM66.5 65.6195H57.125C56.2962 65.6195 55.5013 65.9487 54.9153 66.5348C54.3292 67.1208 54 67.9157 54 68.7445C54 69.5733 54.3292 70.3682 54.9153 70.9542C55.5013 71.5403 56.2962 71.8695 57.125 71.8695H66.5C67.3288 71.8695 68.1237 71.5403 68.7097 70.9542C69.2958 70.3682 69.625 69.5733 69.625 68.7445C69.625 67.9157 69.2958 67.1208 68.7097 66.5348C68.1237 65.9487 67.3288 65.6195 66.5 65.6195ZM57.125 78.1195H35.25C34.4212 78.1195 33.6263 78.4487 33.0403 79.0348C32.4542 79.6208 32.125 80.4157 32.125 81.2445C32.125 82.0733 32.4542 82.8682 33.0403 83.4542C33.6263 84.0403 34.4212 84.3695 35.25 84.3695H57.125C57.9538 84.3695 58.7487 84.0403 59.3347 83.4542C59.9208 82.8682 60.25 82.0733 60.25 81.2445C60.25 80.4157 59.9208 79.6208 59.3347 79.0348C58.7487 78.4487 57.9538 78.1195 57.125 78.1195ZM85.25 29.682C85.2417 37.5531 82.1113 45.0994 76.5456 50.6651C70.9799 56.2308 63.4336 59.3612 55.5625 59.3695H24.3125C18.9253 59.3695 13.7587 57.2294 9.94939 53.4201C6.14006 49.6108 4 44.4442 4 39.057C4 33.6698 6.14006 28.5032 9.94939 24.6939C13.7587 20.8846 18.9253 18.7445 24.3125 18.7445C25.4802 18.7455 26.6458 18.8448 27.7969 19.0414C30.2891 12.5678 34.9674 7.17001 41.0211 3.78314C47.0748 0.39628 54.1226 -0.766241 60.9433 0.496998C67.7641 1.76024 73.928 5.36964 78.3673 10.6999C82.8066 16.0301 85.2414 22.7453 85.25 29.682ZM79 29.682C78.975 23.5963 76.5862 17.7584 72.3379 13.4009C68.0895 9.04332 62.3142 6.5071 56.2311 6.32765C50.1479 6.1482 44.2331 8.33956 39.7353 12.4391C35.2375 16.5386 32.5087 22.2255 32.125 28.2992C32.1014 28.7096 31.9972 29.1113 31.8184 29.4814C31.6395 29.8515 31.3895 30.1828 31.0827 30.4563C30.4629 31.0086 29.6491 31.2922 28.8203 31.2445C27.9915 31.1969 27.2156 30.8219 26.6632 30.2022C26.1109 29.5824 25.8273 28.7686 25.875 27.9398C25.9297 26.9867 26.0299 26.0453 26.1758 25.1156C25.5578 25.0363 24.9355 24.9958 24.3125 24.9945C20.5829 24.9945 17.006 26.4761 14.3688 29.1133C11.7316 31.7506 10.25 35.3274 10.25 39.057C10.25 42.7866 11.7316 46.3635 14.3688 49.0007C17.006 51.6379 20.5829 53.1195 24.3125 53.1195H55.5625C61.7763 53.1123 67.7335 50.6406 72.1273 46.2468C76.5211 41.853 78.9928 35.8958 79 29.682Z" fill="white"/>
</g>
<defs>
<filter id="filter0_d_1_16" x="0" y="0" width="89.25" height="98.3695" filterUnits="userSpaceOnUse" color-interpolation-filters="sRGB">
<feFlood flood-opacity="0" result="BackgroundImageFix"/>
<feColorMatrix in="SourceAlpha" type="matrix" values="0 0 0 0 0 0 0 0 0 0 0 0 0 0 0 0 0 0 127 0" result="hardAlpha"/>
<feOffset dy="10"/>
<feGaussianBlur stdDeviation="2"/>
<feComposite in2="hardAlpha" operator="out"/>
<feColorMatrix type="matrix" values="0 0 0 0 0 0 0 0 0 0 0 0 0 0 0 0 0 0 0.25 0"/>
<feBlend mode="normal" in2="BackgroundImageFix" result="effect1_dropShadow_1_16"/>
<feBlend mode="normal" in="SourceGraphic" in2="effect1_dropShadow_1_16" result="shape"/>
</filter>
</defs>
</svg>
