<svg width="20" height="20" viewBox="0 0 20 20" fill="none" xmlns="http://www.w3.org/2000/svg">
<path fill-rule="evenodd" clip-rule="evenodd" d="M17.1429 5.55556V6.85556C17.9788 7.08543 18.7025 7.51129 19.2142 8.07446C19.7259 8.63764 20.0005 9.31039 20 10V16.6667C20 17.5507 19.5485 18.3986 18.7447 19.0237C17.941 19.6488 16.8509 20 15.7143 20H4.28571C3.14907 20 2.05898 19.6488 1.25526 19.0237C0.451529 18.3986 5.89246e-07 17.5507 5.89246e-07 16.6667V10C-0.000464229 9.31039 0.27408 8.63764 0.785796 8.07446C1.29751 7.51129 2.02121 7.08543 2.85714 6.85556V5.55556C2.85714 4.08213 3.60969 2.66905 4.94924 1.62718C6.28878 0.585316 8.1056 0 10 0C11.8944 0 13.7112 0.585316 15.0508 1.62718C16.3903 2.66905 17.1429 4.08213 17.1429 5.55556ZM5.71429 5.55556C5.71429 4.6715 6.16581 3.82365 6.96954 3.19853C7.77327 2.57341 8.86336 2.22222 10 2.22222C11.1366 2.22222 12.2267 2.57341 13.0305 3.19853C13.8342 3.82365 14.2857 4.6715 14.2857 5.55556V6.66667H5.71429V5.55556Z" fill="white"/>
</svg>
