<svg width="20" height="20" viewBox="0 0 20 20" fill="none" xmlns="http://www.w3.org/2000/svg">
<path d="M10 0C8.02219 0 6.08879 0.58649 4.4443 1.6853C2.79981 2.78412 1.51809 4.3459 0.761209 6.17316C0.00433284 8.00043 -0.1937 10.0111 0.192152 11.9509C0.578004 13.8907 1.53041 15.6725 2.92894 17.0711C4.32746 18.4696 6.10929 19.422 8.0491 19.8078C9.98891 20.1937 11.9996 19.9957 13.8268 19.2388C15.6541 18.4819 17.2159 17.2002 18.3147 15.5557C19.4135 13.9112 20 11.9778 20 10C19.9971 7.34874 18.9425 4.80691 17.0678 2.93218C15.1931 1.05745 12.6513 0.00294095 10 0ZM5.51574 16.3491C6.03155 15.6438 6.70645 15.0701 7.48561 14.6747C8.26477 14.2792 9.12623 14.0731 10 14.0731C10.8738 14.0731 11.7352 14.2792 12.5144 14.6747C13.2936 15.0701 13.9684 15.6438 14.4843 16.3491C13.1737 17.2785 11.6067 17.7777 10 17.7777C8.39331 17.7777 6.82632 17.2785 5.51574 16.3491ZM7.40741 9.25926C7.40741 8.74649 7.55946 8.24524 7.84434 7.81889C8.12922 7.39254 8.53413 7.06024 9.00786 6.86401C9.48159 6.66779 10.0029 6.61645 10.5058 6.71648C11.0087 6.81652 11.4707 7.06344 11.8332 7.42602C12.1958 7.7886 12.4427 8.25055 12.5428 8.75347C12.6428 9.25638 12.5915 9.77767 12.3952 10.2514C12.199 10.7251 11.8667 11.13 11.4404 11.4149C11.014 11.6998 10.5128 11.8518 10 11.8518C9.3124 11.8518 8.65297 11.5787 8.16676 11.0925C7.68056 10.6063 7.40741 9.94686 7.40741 9.25926ZM16.1111 14.8093C15.3909 13.8933 14.473 13.1519 13.4259 12.6407C14.0932 11.965 14.5458 11.107 14.7267 10.1747C14.9076 9.24235 14.8087 8.27736 14.4425 7.4011C14.0763 6.52484 13.4592 5.77644 12.6687 5.25005C11.8782 4.72367 10.9497 4.44281 10 4.44281C9.0503 4.44281 8.12181 4.72367 7.33133 5.25005C6.54085 5.77644 5.9237 6.52484 5.55751 7.4011C5.19132 8.27736 5.09244 9.24235 5.27333 10.1747C5.45421 11.107 5.90677 11.965 6.57408 12.6407C5.52701 13.1519 4.60907 13.8933 3.88889 14.8093C2.98431 13.6625 2.42088 12.2843 2.26311 10.8323C2.10534 9.38028 2.3596 7.91319 2.99679 6.59896C3.63398 5.28472 4.62835 4.17646 5.86606 3.40103C7.10378 2.62561 8.53482 2.21435 9.99537 2.21435C11.4559 2.21435 12.887 2.62561 14.1247 3.40103C15.3624 4.17646 16.3568 5.28472 16.994 6.59896C17.6311 7.91319 17.8854 9.38028 17.7276 10.8323C17.5699 12.2843 17.0064 13.6625 16.1019 14.8093H16.1111Z" fill="white"/>
</svg>
