<svg width="20" height="20" viewBox="0 0 20 20" fill="none" xmlns="http://www.w3.org/2000/svg">
<path d="M5.21385 13.7752C5.36872 13.8335 5.49412 13.9508 5.56255 14.1013C5.63098 14.2518 5.63686 14.4232 5.57889 14.5781L3.70366 19.5723C3.67719 19.652 3.6349 19.7255 3.57932 19.7885C3.52374 19.8515 3.45601 19.9026 3.38018 19.9389C3.30436 19.9751 3.222 19.9957 3.13802 19.9994C3.05404 20.0031 2.97018 19.9899 2.89145 19.9605C2.81271 19.9311 2.74073 19.8861 2.67979 19.8283C2.61886 19.7704 2.57023 19.7009 2.53681 19.6239C2.5034 19.5469 2.48588 19.4639 2.48531 19.3799C2.48475 19.296 2.50114 19.2128 2.53351 19.1353L4.40874 14.1411C4.43752 14.0642 4.48117 13.9938 4.53722 13.9338C4.59326 13.8738 4.6606 13.8255 4.73537 13.7915C4.81014 13.7575 4.89089 13.7386 4.97299 13.7358C5.05509 13.733 5.13694 13.7464 5.21385 13.7752ZM8.96432 13.7752C9.11919 13.8335 9.24459 13.9508 9.31302 14.1013C9.38145 14.2518 9.38733 14.4232 9.32936 14.5781L7.45413 19.5723C7.42766 19.652 7.38537 19.7255 7.32979 19.7885C7.27421 19.8515 7.20648 19.9026 7.13066 19.9389C7.05483 19.9751 6.97247 19.9957 6.88849 19.9994C6.80452 20.0031 6.72065 19.9899 6.64192 19.9605C6.56319 19.9311 6.4912 19.8861 6.43026 19.8283C6.36933 19.7704 6.3207 19.7009 6.28729 19.6239C6.25387 19.5469 6.23635 19.4639 6.23579 19.3799C6.23522 19.296 6.25161 19.2128 6.28398 19.1353L8.15922 14.1411C8.18799 14.0642 8.23165 13.9938 8.28769 13.9338C8.34374 13.8738 8.41107 13.8255 8.48584 13.7915C8.56062 13.7575 8.64136 13.7386 8.72346 13.7358C8.80556 13.733 8.88741 13.7464 8.96432 13.7752ZM12.7148 13.7752C12.8697 13.8335 12.9951 13.9508 13.0635 14.1013C13.1319 14.2518 13.1378 14.4232 13.0798 14.5781L11.2046 19.5723C11.1781 19.652 11.1358 19.7255 11.0803 19.7885C11.0247 19.8515 10.957 19.9026 10.8811 19.9389C10.8053 19.9751 10.7229 19.9957 10.639 19.9994C10.555 20.0031 10.4711 19.9899 10.3924 19.9605C10.3137 19.9311 10.2417 19.8861 10.1807 19.8283C10.1198 19.7704 10.0712 19.7009 10.0378 19.6239C10.0043 19.5469 9.98683 19.4639 9.98626 19.3799C9.98569 19.296 10.0021 19.2128 10.0345 19.1353L11.9097 14.1411C11.9385 14.0642 11.9821 13.9938 12.0382 13.9338C12.0942 13.8738 12.1615 13.8255 12.2363 13.7915C12.3111 13.7575 12.3918 13.7386 12.4739 13.7358C12.556 13.733 12.6379 13.7464 12.7148 13.7752ZM16.4653 13.7752C16.6201 13.8335 16.7455 13.9508 16.814 14.1013C16.8824 14.2518 16.8883 14.4232 16.8303 14.5781L14.9551 19.5723C14.8928 19.7214 14.7751 19.8405 14.6267 19.9047C14.4783 19.9689 14.3108 19.9732 14.1593 19.9166C14.0078 19.8601 13.8842 19.7471 13.8144 19.6014C13.7445 19.4557 13.734 19.2886 13.7849 19.1353L15.6602 14.1411C15.6889 14.0642 15.7326 13.9938 15.7886 13.9338C15.8447 13.8738 15.912 13.8255 15.9868 13.7915C16.0616 13.7575 16.1423 13.7386 16.2244 13.7358C16.3065 13.733 16.3884 13.7464 16.4653 13.7752ZM16.7515 5.02908C16.4919 3.72203 15.8205 2.53222 14.8353 1.63359C13.8502 0.734961 12.603 0.174655 11.2762 0.034595C9.94934 -0.105465 8.61245 0.182067 7.46096 0.85515C6.30947 1.52823 5.40377 2.55156 4.8763 3.77552C4.28478 3.70746 3.68556 3.7607 3.11535 3.93197C2.54514 4.10325 2.01594 4.38895 1.56013 4.77159C1.10433 5.15423 0.731516 5.62576 0.464525 6.15731C0.197533 6.68886 0.0419806 7.26923 0.00738981 7.86291C-0.027201 8.45658 0.0598981 9.05106 0.263354 9.60995C0.466811 10.1688 0.782343 10.6804 1.19063 11.1132C1.59892 11.5461 2.09138 11.8912 2.63785 12.1273C3.18432 12.3635 3.7733 12.4858 4.36874 12.4867H16.2452C17.1967 12.4878 18.1131 12.1277 18.8087 11.4792C19.5042 10.8308 19.927 9.94256 19.9914 8.99444C20.0558 8.04633 19.7569 7.10922 19.1553 6.37295C18.5538 5.63667 17.6945 5.15628 16.7515 5.02908ZM10.6195 1.24968C11.8496 1.24943 13.0367 1.702 13.9537 2.52086C14.8707 3.33972 15.4533 4.46741 15.5902 5.68832C15.6071 5.84171 15.6804 5.98339 15.7959 6.08599C15.9113 6.1886 16.0607 6.24486 16.2152 6.24393H16.2452C16.9084 6.24393 17.5443 6.50701 18.0132 6.97531C18.4821 7.44362 18.7455 8.07877 18.7455 8.74105C18.7455 9.40332 18.4821 10.0385 18.0132 10.5068C17.5443 10.9751 16.9084 11.2382 16.2452 11.2382H4.36874C3.92628 11.2379 3.4889 11.1439 3.08555 10.9623C2.6822 10.7806 2.32206 10.5155 2.02896 10.1845C1.73587 9.85341 1.51649 9.46399 1.38534 9.04195C1.2542 8.61991 1.21427 8.17486 1.26821 7.73626C1.32215 7.29766 1.46872 6.87549 1.69822 6.49769C1.92773 6.11989 2.23494 5.79506 2.59954 5.54469C2.96413 5.29432 3.3778 5.12413 3.81318 5.04536C4.24856 4.96659 4.69572 4.98104 5.12508 5.08776C5.27826 5.12592 5.44023 5.10477 5.57844 5.02857C5.71665 4.95238 5.82088 4.82677 5.87018 4.67698C6.20057 3.6796 6.83732 2.81159 7.68993 2.19632C8.54254 1.58104 9.56763 1.24981 10.6195 1.24968Z" fill="white"/>
</svg>
