<svg width="124" height="248" viewBox="0 0 124 248" fill="none" xmlns="http://www.w3.org/2000/svg">
<path d="M112 28V12C112 8.8174 113.264 5.76515 115.515 3.51472C117.765 1.26428 120.817 0 124 0C127.183 0 130.235 1.26428 132.485 3.51472C134.736 5.76515 136 8.8174 136 12V28C136 31.1826 134.736 34.2348 132.485 36.4853C130.235 38.7357 127.183 40 124 40C120.817 40 117.765 38.7357 115.515 36.4853C113.264 34.2348 112 31.1826 112 28ZM192 124C192 137.449 188.012 150.596 180.54 161.779C173.068 172.961 162.448 181.677 150.022 186.824C137.597 191.971 123.925 193.317 110.734 190.693C97.5432 188.07 85.4267 181.593 75.9167 172.083C66.4068 162.573 59.9304 150.457 57.3066 137.266C54.6828 124.075 56.0294 110.403 61.1762 97.9775C66.323 85.5521 75.0387 74.932 86.2212 67.4601C97.4038 59.9881 110.551 56 124 56C142.029 56.0185 159.314 63.1887 172.063 75.9372C184.811 88.6857 191.981 105.971 192 124ZM168 124C168 115.298 165.419 106.791 160.585 99.5549C155.75 92.3191 148.878 86.6796 140.838 83.3493C132.798 80.0191 123.951 79.1477 115.416 80.8455C106.881 82.5432 99.0408 86.7338 92.8873 92.8873C86.7338 99.0408 82.5432 106.881 80.8455 115.416C79.1477 123.951 80.0191 132.798 83.3493 140.838C86.6796 148.878 92.3191 155.75 99.5549 160.585C106.791 165.419 115.298 168 124 168C135.665 167.987 146.849 163.347 155.098 155.098C163.347 146.849 167.987 135.665 168 124ZM47.51 64.49C48.6262 65.6062 49.9514 66.4917 51.4098 67.0958C52.8683 67.6999 54.4314 68.0108 56.01 68.0108C57.5886 68.0108 59.1517 67.6999 60.6102 67.0958C62.0686 66.4917 63.3938 65.6062 64.51 64.49C65.6262 63.3738 66.5117 62.0486 67.1158 60.5902C67.7199 59.1317 68.0308 57.5686 68.0308 55.99C68.0308 54.4114 67.7199 52.8483 67.1158 51.3898C66.5117 49.9314 65.6262 48.6062 64.51 47.49L52.51 35.49C50.2557 33.2357 47.1981 31.9692 44.01 31.9692C40.8219 31.9692 37.7643 33.2357 35.51 35.49C33.2557 37.7443 31.9892 40.8019 31.9892 43.99C31.9892 47.1781 33.2557 50.2357 35.51 52.49L47.51 64.49ZM47.51 183.49L35.51 195.49C34.3938 196.606 33.5083 197.931 32.9042 199.39C32.3001 200.848 31.9892 202.411 31.9892 203.99C31.9892 205.569 32.3001 207.132 32.9042 208.59C33.5083 210.049 34.3938 211.374 35.51 212.49C37.7643 214.744 40.8219 216.011 44.01 216.011C45.5886 216.011 47.1517 215.7 48.6102 215.096C50.0686 214.492 51.3938 213.606 52.51 212.49L64.51 200.49C66.7643 198.236 68.0308 195.178 68.0308 191.99C68.0308 188.802 66.7643 185.744 64.51 183.49C62.2557 181.236 59.1981 179.969 56.01 179.969C52.8219 179.969 49.7643 181.236 47.51 183.49ZM192 68C193.576 68.0012 195.137 67.6919 196.594 67.0896C198.051 66.4874 199.375 65.604 200.49 64.49L212.49 52.49C213.606 51.3738 214.492 50.0486 215.096 48.5902C215.7 47.1317 216.011 45.5686 216.011 43.99C216.011 42.4114 215.7 40.8483 215.096 39.3898C214.492 37.9314 213.606 36.6062 212.49 35.49C211.374 34.3738 210.049 33.4883 208.59 32.8842C207.132 32.2801 205.569 31.9692 203.99 31.9692C202.411 31.9692 200.848 32.2801 199.39 32.8842C197.931 33.4883 196.606 34.3738 195.49 35.49L183.49 47.49C181.802 49.1684 180.651 51.311 180.184 53.6453C179.717 55.9796 179.954 58.4002 180.867 60.599C181.779 62.7978 183.325 64.6756 185.307 65.9935C187.29 67.3114 189.619 68.0098 192 68ZM200.49 183.51C198.236 181.256 195.178 179.989 191.99 179.989C188.802 179.989 185.744 181.256 183.49 183.51C181.236 185.764 179.969 188.822 179.969 192.01C179.969 195.198 181.236 198.256 183.49 200.51L195.49 212.51C197.744 214.764 200.802 216.031 203.99 216.031C207.178 216.031 210.236 214.764 212.49 212.51C214.744 210.256 216.011 207.198 216.011 204.01C216.011 200.822 214.744 197.764 212.49 195.51L200.49 183.51ZM40 124C40 120.817 38.7357 117.765 36.4853 115.515C34.2348 113.264 31.1826 112 28 112H12C8.8174 112 5.76515 113.264 3.51472 115.515C1.26428 117.765 0 120.817 0 124C0 127.183 1.26428 130.235 3.51472 132.485C5.76515 134.736 8.8174 136 12 136H28C31.1826 136 34.2348 134.736 36.4853 132.485C38.7357 130.235 40 127.183 40 124ZM124 208C120.817 208 117.765 209.264 115.515 211.515C113.264 213.765 112 216.817 112 220V236C112 239.183 113.264 242.235 115.515 244.485C117.765 246.736 120.817 248 124 248C127.183 248 130.235 246.736 132.485 244.485C134.736 242.235 136 239.183 136 236V220C136 216.817 134.736 213.765 132.485 211.515C130.235 209.264 127.183 208 124 208ZM236 112H220C216.817 112 213.765 113.264 211.515 115.515C209.264 117.765 208 120.817 208 124C208 127.183 209.264 130.235 211.515 132.485C213.765 134.736 216.817 136 220 136H236C239.183 136 242.235 134.736 244.485 132.485C246.736 130.235 248 127.183 248 124C248 120.817 246.736 117.765 244.485 115.515C242.235 113.264 239.183 112 236 112Z" fill="white"/>
</svg>
